<mxfile host="app.diagrams.net" modified="2022-08-04T17:26:00.358Z" agent="5.0 (Windows NT 10.0; Win64; x64) AppleWebKit/537.36 (KHTML, like Gecko) Chrome/103.0.0.0 Safari/537.36" etag="EHV_ZZbtkB8l3lTsYAyh" version="20.2.3" type="github">
  <diagram id="C5RBs43oDa-KdzZeNtuy" name="Page-1">
    <mxGraphModel dx="868" dy="442" grid="1" gridSize="10" guides="1" tooltips="1" connect="1" arrows="1" fold="1" page="1" pageScale="1" pageWidth="827" pageHeight="1169" math="0" shadow="0">
      <root>
        <mxCell id="WIyWlLk6GJQsqaUBKTNV-0" />
        <mxCell id="WIyWlLk6GJQsqaUBKTNV-1" parent="WIyWlLk6GJQsqaUBKTNV-0" />
        <mxCell id="0wG-On14FIH2i1DbbZe6-0" value="INICIO" style="rounded=1;whiteSpace=wrap;html=1;arcSize=50;" vertex="1" parent="WIyWlLk6GJQsqaUBKTNV-1">
          <mxGeometry x="317" y="60" width="140" height="60" as="geometry" />
        </mxCell>
        <mxCell id="0wG-On14FIH2i1DbbZe6-1" value="FIN" style="rounded=1;whiteSpace=wrap;html=1;arcSize=50;" vertex="1" parent="WIyWlLk6GJQsqaUBKTNV-1">
          <mxGeometry x="317" y="260" width="140" height="60" as="geometry" />
        </mxCell>
        <mxCell id="0wG-On14FIH2i1DbbZe6-2" value="" style="rounded=0;whiteSpace=wrap;html=1;" vertex="1" parent="WIyWlLk6GJQsqaUBKTNV-1">
          <mxGeometry x="327" y="165" width="120" height="60" as="geometry" />
        </mxCell>
        <mxCell id="0wG-On14FIH2i1DbbZe6-3" value="PROCESO" style="text;html=1;align=center;verticalAlign=middle;resizable=0;points=[];autosize=1;strokeColor=none;fillColor=none;" vertex="1" parent="WIyWlLk6GJQsqaUBKTNV-1">
          <mxGeometry x="462" y="180" width="80" height="30" as="geometry" />
        </mxCell>
        <mxCell id="0wG-On14FIH2i1DbbZe6-4" value="" style="rhombus;whiteSpace=wrap;html=1;" vertex="1" parent="WIyWlLk6GJQsqaUBKTNV-1">
          <mxGeometry x="347" y="340" width="80" height="80" as="geometry" />
        </mxCell>
        <mxCell id="0wG-On14FIH2i1DbbZe6-5" value="NO" style="text;html=1;align=center;verticalAlign=middle;resizable=0;points=[];autosize=1;strokeColor=none;fillColor=none;" vertex="1" parent="WIyWlLk6GJQsqaUBKTNV-1">
          <mxGeometry x="280" y="365" width="40" height="30" as="geometry" />
        </mxCell>
        <mxCell id="0wG-On14FIH2i1DbbZe6-6" value="SI" style="text;html=1;align=center;verticalAlign=middle;resizable=0;points=[];autosize=1;strokeColor=none;fillColor=none;" vertex="1" parent="WIyWlLk6GJQsqaUBKTNV-1">
          <mxGeometry x="447" y="365" width="30" height="30" as="geometry" />
        </mxCell>
        <mxCell id="0wG-On14FIH2i1DbbZe6-7" value="" style="shape=document;whiteSpace=wrap;html=1;boundedLbl=1;" vertex="1" parent="WIyWlLk6GJQsqaUBKTNV-1">
          <mxGeometry x="327" y="470" width="120" height="80" as="geometry" />
        </mxCell>
        <mxCell id="0wG-On14FIH2i1DbbZe6-8" value="SALIDA" style="text;html=1;align=center;verticalAlign=middle;resizable=0;points=[];autosize=1;strokeColor=none;fillColor=none;" vertex="1" parent="WIyWlLk6GJQsqaUBKTNV-1">
          <mxGeometry x="447" y="470" width="70" height="30" as="geometry" />
        </mxCell>
        <mxCell id="0wG-On14FIH2i1DbbZe6-9" value="" style="shape=parallelogram;perimeter=parallelogramPerimeter;whiteSpace=wrap;html=1;fixedSize=1;" vertex="1" parent="WIyWlLk6GJQsqaUBKTNV-1">
          <mxGeometry x="327" y="570" width="120" height="60" as="geometry" />
        </mxCell>
        <mxCell id="0wG-On14FIH2i1DbbZe6-10" value="ENTRADA" style="text;html=1;align=center;verticalAlign=middle;resizable=0;points=[];autosize=1;strokeColor=none;fillColor=none;" vertex="1" parent="WIyWlLk6GJQsqaUBKTNV-1">
          <mxGeometry x="447" y="585" width="80" height="30" as="geometry" />
        </mxCell>
        <mxCell id="0wG-On14FIH2i1DbbZe6-11" value="" style="shape=process;whiteSpace=wrap;html=1;backgroundOutline=1;" vertex="1" parent="WIyWlLk6GJQsqaUBKTNV-1">
          <mxGeometry x="327" y="650" width="120" height="60" as="geometry" />
        </mxCell>
        <mxCell id="0wG-On14FIH2i1DbbZe6-12" value="SUBPROCESO" style="text;html=1;align=center;verticalAlign=middle;resizable=0;points=[];autosize=1;strokeColor=none;fillColor=none;" vertex="1" parent="WIyWlLk6GJQsqaUBKTNV-1">
          <mxGeometry x="447" y="665" width="110" height="30" as="geometry" />
        </mxCell>
        <mxCell id="0wG-On14FIH2i1DbbZe6-13" value="" style="ellipse;whiteSpace=wrap;html=1;aspect=fixed;" vertex="1" parent="WIyWlLk6GJQsqaUBKTNV-1">
          <mxGeometry x="347" y="730" width="80" height="80" as="geometry" />
        </mxCell>
        <mxCell id="0wG-On14FIH2i1DbbZe6-14" value="CONECTOR" style="text;html=1;align=center;verticalAlign=middle;resizable=0;points=[];autosize=1;strokeColor=none;fillColor=none;" vertex="1" parent="WIyWlLk6GJQsqaUBKTNV-1">
          <mxGeometry x="442" y="755" width="90" height="30" as="geometry" />
        </mxCell>
      </root>
    </mxGraphModel>
  </diagram>
</mxfile>
